<svg xmlns="http://www.w3.org/2000/svg" width="65" height="67" fill="none"><path fill="url(#a)" d="M63 8.5v41.2c0 3.7-2.8 6.7-6.4 7.2h-4.5v4c0 2.8-1 4.8-3.8 5.1-1 .2-2.2 0-3.6-.2L7.2 57C3 56.1.3 53.5.2 50L0 49V7c.4-3.4 3.2-6 6.7-6h49.1c4 0 7.1 3.4 7.1 7.4Z"/><path fill="url(#b)" d="M51.5 18.3c-1-2.6-3-4.7-5.6-5.3L7.6 1.5c-.5-.2-1-.3-1.5-.2A6.5 6.5 0 0 0 0 7v42.7C.5 53.5 3.2 56 7.4 57l15.9 3.7.9.2 20.6 4.8c1.4.3 2.7.4 3.6.3 2.8-.4 3.8-2.4 3.8-5.1V21.4a8 8 0 0 0-.6-3.1Z"/><path fill="url(#c)" d="M51.5 18.3c-1-2.6-3-4.7-5.6-5.3L7.6 1.5c-.5-.2-1-.3-1.5-.2A6.5 6.5 0 0 0 0 7v42.7C.5 53.5 3.2 56 7.4 57l15.9 3.7.9.2 20.6 4.8c1.4.3 2.7.4 3.6.3 2.8-.4 3.8-2.4 3.8-5.1V21.4a8 8 0 0 0-.6-3.1Z"/><path fill="url(#d)" d="M64.1 7.3v41.2c0 3.6 0 4-4 7a7.3 7.3 0 0 0 2.8-5.8V8.5c0-4-3.3-7.3-7.3-7.3H12.1L47 11.6c2.6.7 4.7 2.8 5.6 5.3.4 1 .5 2 .5 3.1v39.7c0 2.5 0 4-2.9 5.5.4-.2.7-.6 1-1 .5-.9.7-2 .7-3.3V21.3c0-1-.2-2.1-.6-3.1-.9-2.6-3-4.6-5.6-5.3L7.4 1.4c-.3-.1-.8-.2-1.3-.1-.6 0-1 0-1.6.3a4.5 4.5 0 0 0-.9.3s-.2 0-.2.2H3l-.1.1-.4.4c.8-1 1.8-1.8 3-2.3h.1C6.5.1 7.1 0 8 0h49c4 0 7.2 3.2 7.2 7.3Z"/><mask id="f" width="47" height="57" x="12" y="1" maskUnits="userSpaceOnUse" style="mask-type:alpha"><path fill="url(#e)" d="M58.7 20.1v36.3a6 6 0 0 1-2.1.6h-3.4V20.1c0-1-.2-2.1-.5-3.1-1-2.6-3-4.6-5.6-5.3L12.2 1.3l39.5 10.4a9 9 0 0 1 6.4 5.3c.4 1 .6 2 .6 3.1Z"/></mask><g mask="url(#f)"><path fill="url(#g)" d="M58.7 20.1v36.3a6 6 0 0 1-2 .6h-3.4V20.1c0-1-.2-2.1-.6-3.1-.9-2.6-3-4.6-5.6-5.3L12.3 1.3l39.4 10.4a9 9 0 0 1 6.4 5.3c.4 1 .6 2 .6 3.1Z" opacity=".3"/></g><path fill="#161616" d="m13.2 43.3 1.4 1c1.3 1 2.6 1.7 4 2 3.2 1 6.2.9 8.8-.5 2.1-1.2 3.6-3 4.2-5.6.5-2.4 0-5-1.5-7.5v-.2l.1.1c2 2 3 4.1 3.6 6.6a8.8 8.8 0 0 1-7.5 10.1c-1.7.3-3.4.2-5-.3-2.6-.7-4.9-2-6.8-4.2a5 5 0 0 1-1.3-1.5Z"/><path fill="#161616" d="m23.1 29.8.8-.8a7.4 7.4 0 0 1 5.1-1.6c2.1.2 4 1 6 2.4A16 16 0 0 1 41.5 43c-.1 2.5-1 4.6-2.6 6.1l-1.2 1h-.2l.2-.2a8.5 8.5 0 0 0 1.7-4c.4-3.4-.4-6.8-2.5-10.1a14.6 14.6 0 0 0-6-5.4c-2.7-1.4-5.3-1.6-7.7-.4 0-.2 0-.2-.2-.2Z"/><path fill="#161616" d="M25.2 51.7c3.4 0 6-1.3 7.8-3.8a9.5 9.5 0 0 0 1.6-4c.5-2.8 0-5.5-1.5-8.3a12.1 12.1 0 0 0-6.2-5.6l-.1-.1h.5l.5.1c2.9.6 5.2 2 7.2 4.6 1.3 1.6 2 3.4 2.4 5.3 1.2 5.3-1.3 10.3-5.6 11.9-1.8.7-3.8.8-5.9.2l-.7-.3Z"/><path fill="#161616" d="m38.8 25.7-1.4-1.2c-1.3-.9-2.6-1.6-4-2a11 11 0 0 0-8.7.6 7.7 7.7 0 0 0-4.2 5.5c-.5 2.5 0 5 1.5 7.6l.1.2-.5-.5a12 12 0 0 1-3.3-6.2c-.3-1.8 0-3.4.6-5a8.4 8.4 0 0 1 6.3-5c1.8-.4 3.7-.3 5.7.2 2.9.8 5.4 2.4 7.4 5l.5.8Z"/><path fill="#161616" d="m28.9 39.2-.9.8a7 7 0 0 1-5 1.5c-2-.2-4.1-1-6-2.3a16.5 16.5 0 0 1-6.2-9c-.4-1.7-.6-3.3-.4-4.9.2-2.2 1-4.1 2.5-5.5l1.3-1v.2c-1 1.4-1.7 3-1.8 4.9-.3 4.2 1.2 8.2 4.5 11.8a13 13 0 0 0 5.1 3.5 8 8 0 0 0 6.7-.1h.2Z"/><path fill="#161616" d="M8.6 29.7c.7 3.4 2.5 6.2 5.1 8.6a16 16 0 0 0 5 3.2c2.7 1 5.2 1.3 7.5.4 2.5-.8 4-2.6 4.5-5.4v-.1l.2.5v.5c0 2.3-.5 4.2-1.8 5.7a6.8 6.8 0 0 1-4.3 2c-1.7.3-3.5.1-5.3-.5a16.8 16.8 0 0 1-8.9-7.3 12 12 0 0 1-2-7v-.6ZM21.2 32.6l-.1-1.1c-.1-2.3.5-4.2 1.8-5.6 1.2-1.2 2.6-2 4.3-2.2 1.7-.2 3.5 0 5.3.6a17 17 0 0 1 8.4 6.5c1.2 1.7 2 3.7 2.3 5.6a9 9 0 0 1 .1 2.7v.2c-.1-.4-.3-.7-.3-1.1a17.8 17.8 0 0 0-9.3-10.5 10.8 10.8 0 0 0-7.5-.8 6.6 6.6 0 0 0-5 5.5c.1 0 .1.1 0 .2.1 0 .1 0 0 0Z"/><path fill="#161616" d="M25.2 39h-1c-2.3-.4-4.3-1.6-6.1-3.3a12.9 12.9 0 0 1-3.8-10.4c.5-4 2.5-6.6 5.9-8a8.7 8.7 0 0 1 6.5 0 9 9 0 0 0-4 .8c-2.5 1-4.1 2.9-5 5.4-.8 2.4-.9 5.1.2 8 1.2 3.2 3.3 5.6 6.3 7.2.4 0 .7.2 1 .4Z"/><g opacity=".5"><g opacity=".5"><path fill="#fff" d="M24.4 49.8A14 14 0 0 1 14 45.1l-.9-1-.4-.5-.2-.3.5-.2h.2l.5.5 1 .8a13.1 13.1 0 0 0 7.7 2.5c1.6 0 3.2-.4 4.6-1.2 2.2-1.1 3.5-3 4-5.4.6-2.3 0-4.8-1.4-7.2l-.1-.3-.2-1 .7.7.2.1c2 2 3.2 4.2 3.6 6.7a8.7 8.7 0 0 1-7.7 10.5h-1.8Z" opacity=".5"/><path fill="#000" d="M30 32.5v.2c2 1.9 3.1 4 3.6 6.6.4 2.2 0 4-1 5.7a8.8 8.8 0 0 1-6.5 4.4l-1.7.1c-1 0-2.2-.1-3.3-.4-2.5-.8-4.8-2-6.7-4.2L13 43.3l1.5 1.1a14 14 0 0 0 7.8 2.6c1.8 0 3.4-.4 5-1.2 2.1-1.2 3.6-3 4.2-5.5.5-2.5 0-5-1.5-7.6l-.2-.2Zm-1.1-1.7.4 1.9.1.4c1.5 2.3 2 4.7 1.4 7-.4 2.4-1.7 4-3.9 5.2-1.3.7-3 1.1-4.5 1.1a12.3 12.3 0 0 1-7.5-2.5l-1-.8-.4-.4-.3-.2-.4.2-.6.4.4.5.4.4 1 1.2A15 15 0 0 0 24.4 50l1.8-.2c3.2-.5 5.6-2 7-4.6a9 9 0 0 0 1-6.2c-.4-2.5-1.7-4.8-3.6-6.9l-.2-.1-1.5-1.3Z" opacity=".5"/></g><g opacity=".5"><path fill="#fff" d="m37.7 50.3-.5-.1.4-.6a8.2 8.2 0 0 0 1.6-3.9c.5-3.3-.4-6.6-2.5-9.9a14.3 14.3 0 0 0-5.8-5.2c-1.5-.8-3-1.2-4.3-1.2-1 0-2.1.3-3.1.7l-.4.1-.2-.1-.2-.2.2-.3.3-.2.6-.6c1.3-1 2.9-1.6 4.7-1.6h.6c2 .1 4.1 1 6.1 2.4A16.5 16.5 0 0 1 42 43c-.1 2.7-1 4.8-2.7 6.3l-.9.7-.4.3h-.3Z" opacity=".5"/><path fill="#000" d="M28.5 27.5h.5c2.1.1 4 1 6 2.3a16 16 0 0 1 6.6 13.3c-.1 2.5-1 4.5-2.6 6.1l-1.2 1h-.1l.1-.3a8.5 8.5 0 0 0 1.7-4c.4-3.4-.4-6.7-2.5-10a14.6 14.6 0 0 0-6-5.5c-1.5-.8-3-1.1-4.4-1.1a8 8 0 0 0-3.3.7h-.1l.7-.8a6.3 6.3 0 0 1 4.6-1.7Zm0-.7a7.6 7.6 0 0 0-5.6 2.3l-.2.3-.4.4.4.4.3.4.4-.2h.2c1-.5 2-.7 3-.7 1.3 0 2.7.4 4.2 1C33 32 35 33.7 36.4 36a14 14 0 0 1 2.5 9.6 8 8 0 0 1-1.5 3.8l-.2.2-.6.8.9.3h.2l.4-.2.4-.2a8 8 0 0 0 1-.7 9.1 9.1 0 0 0 2.7-6.5c0-1.5-.2-3-.5-4.5-1.2-3.8-3.3-7-6.4-9.3-2-1.5-4.1-2.3-6.3-2.5h-.5Z" opacity=".5"/></g><g opacity=".5"><path fill="#fff" d="M28.6 52.6c-1 0-1.8 0-2.8-.4h-.4l-2.2-.7h2.2c3.2 0 5.6-1.2 7.4-3.8a9.8 9.8 0 0 0 1.6-4 12 12 0 0 0-1.4-8 12 12 0 0 0-6-5.4h-.1s-.2 0-.3-.2l-.4-.5H28c3 .7 5.4 2.2 7.4 4.8 1.3 1.6 2 3.4 2.5 5.4 1.2 5.4-1.3 10.6-5.8 12.3-1.2.3-2.3.5-3.4.5Z" opacity=".5"/><path fill="#000" d="M26.8 29.9h.5l.5.1a12.9 12.9 0 0 1 9.6 9.9c1.2 5.3-1.3 10.3-5.6 11.9-1 .4-2 .6-3.2.6-.9 0-1.8-.2-2.7-.4l-.7-.2h.1c3.4 0 5.9-1.3 7.7-3.9a9.5 9.5 0 0 0 1.6-4c.5-2.7 0-5.5-1.5-8.3a12 12 0 0 0-6.2-5.5l-.1-.2Zm-1.3-.7.8 1 .3.3h.2a12 12 0 0 1 5.8 5.3c1.4 2.6 2 5.2 1.5 8a9.5 9.5 0 0 1-1.5 3.7 8.2 8.2 0 0 1-7.2 3.6h-4.2l3.8 1.2h.2l.6.2a9.7 9.7 0 0 0 6.2-.2c4.6-1.7 7.2-7 6-12.6-.4-2-1.3-4-2.5-5.5-2-2.6-4.6-4.2-7.6-4.8H26.8l-1.3-.2Z" opacity=".5"/></g><g opacity=".5"><path fill="#fff" d="m21.8 36.6-.2-.2-.3-.3c-1.8-2-3-4-3.3-6.4a8.8 8.8 0 0 1 7-10.3 11.8 11.8 0 0 1 5.8.2c3.1.8 5.6 2.6 7.6 5l.4.6.5.6-.6.1h-.1l-.5-.4-1-.7a13.1 13.1 0 0 0-7.7-2.6 10 10 0 0 0-4.8 1.2 7.7 7.7 0 0 0-4 5.3A10 10 0 0 0 22 36l.1.3.2 1-.5-.7Z" opacity=".5"/><path fill="#000" d="M27.5 19.4A13.7 13.7 0 0 1 38.2 25l.6.8-1.4-1.2a13.9 13.9 0 0 0-7.8-2.6c-1.8 0-3.4.5-5 1.2a7.7 7.7 0 0 0-4.1 5.5c-.5 2.5 0 5 1.4 7.6l.2.2-.6-.5a12 12 0 0 1-3.2-6.2 8.4 8.4 0 0 1 6.9-10l2.3-.3Zm0-.6c-.8 0-1.7.1-2.5.3a8.9 8.9 0 0 0-6.7 5.4 9 9 0 0 0-.5 5.3c.4 2.4 1.5 4.7 3.4 6.6l.3.3.2.2 1.3 1.4-.3-2v-.1l-.1-.2-.1-.2a10 10 0 0 1-1.4-7c.5-2.3 1.8-4 3.9-5.1 1.4-.8 3-1.2 4.5-1.2a12.3 12.3 0 0 1 7.5 2.6l1 .7c0 .1.2.3.4.3l.2.2h.3l1-.2-.6-.8-.2-.3-.4-.5c-2-2.6-4.6-4.4-7.8-5.3-1-.2-2.2-.4-3.4-.4Z" opacity=".5"/></g><g opacity=".5"><path fill="#fff" d="M23.5 41.8h-.6a11 11 0 0 1-6-2.4 16.5 16.5 0 0 1-6.3-9.1c-.4-1.7-.6-3.3-.4-5a8.5 8.5 0 0 1 2.7-5.7l.8-.6.4-.3.2-.1.4.4-.3.4c-1 1.3-1.5 2.9-1.7 4.7-.2 4.1 1.3 8 4.4 11.5 1.5 1.6 3.1 2.7 5 3.4 1.2.5 2.4.7 3.4.7s2.1-.3 3.1-.7l.3-.1.2.1.2.2-.2.3-.2.2-.6.6c-1.4.9-3 1.5-4.8 1.5Z" opacity=".5"/><path fill="#000" d="M14.2 18.8c0 .1 0 .1 0 0v.2c-1 1.4-1.6 3-1.7 4.9-.3 4.2 1.1 8.2 4.4 11.7a13 13 0 0 0 5.2 3.6c1.2.4 2.4.6 3.5.6a8 8 0 0 0 3.2-.7h.2l-.9.8a6.8 6.8 0 0 1-4.5 1.6h-.5c-2-.2-4.1-1-6-2.3a16.5 16.5 0 0 1-6.2-9c-.4-1.7-.5-3.3-.4-4.9.2-2.2 1-4.1 2.6-5.5l1.1-1Zm.1-.8-.5.4-.4.2-.9.8a9 9 0 0 0-2.7 6c-.2 1.6 0 3.2.4 5 1.1 3.8 3.2 7 6.4 9.3 2 1.4 4.1 2.3 6.3 2.4h.6c1.9 0 3.5-.6 4.8-1.8l.6-.6c.1 0 .2 0 .3-.2l.4-.4-.3-.5h-.1l-.2-.2-.4.2h-.2c-1 .5-1.9.7-3 .7a12.3 12.3 0 0 1-8.1-4A15.4 15.4 0 0 1 13 23.8c.1-1.7.6-3.2 1.6-4.5h.1v-.2l.3-.4-.3-.3-.4-.5Z" opacity=".5"/></g><g opacity=".5"><path fill="#fff" d="M23.3 45.6c-1.3 0-2.6-.2-4-.7a16.9 16.9 0 0 1-9-7.4 12.6 12.6 0 0 1-2-7.7l.3-2.3.4 2c.6 3.2 2.3 6 5 8.5a16 16 0 0 0 4.8 3.1c1.6.6 3 1 4.5 1 1 0 1.9-.2 2.8-.5a6.3 6.3 0 0 0 4.3-5.2c0-.2 0-.3.2-.4l.4-.2v.6l.1.4v.6c.2 2.3-.5 4.3-1.9 5.9a7.5 7.5 0 0 1-4.4 2.2l-1.5.1Z" opacity=".5"/><path fill="#000" d="M8.6 29.7c.7 3.4 2.5 6.2 5.1 8.6a16 16 0 0 0 5 3.2c1.6.6 3.1 1 4.6 1 1 0 2-.2 3-.5 2.4-.9 4-2.6 4.4-5.4v-.2l.1.6.1.5c0 2.2-.5 4.2-1.8 5.6a6.8 6.8 0 0 1-4.3 2.1 10.7 10.7 0 0 1-5.3-.5 16.8 16.8 0 0 1-8.9-7.3 11.9 11.9 0 0 1-2-7v-.7Zm-.2-4.2L8 29.6v.8c0 2.4.6 4.8 2 7.2 2.3 3.7 5.4 6.2 9.3 7.6 1.4.4 2.7.7 4 .7l1.6-.1c2-.3 3.4-1 4.6-2.3a8.3 8.3 0 0 0 2-6.1v-1.2l-.2-.9-.8.5-.3.5v.1a6 6 0 0 1-4.1 5c-.9.3-1.8.5-2.7.5a12 12 0 0 1-4.4-1c-1.7-.6-3.3-1.7-4.8-3a15.4 15.4 0 0 1-4.8-8.3l-1-4.1Z" opacity=".5"/></g><g opacity=".5"><path fill="#fff" d="m43 39-.2-.7a15 15 0 0 0-2.9-5.5 16.9 16.9 0 0 0-6.2-4.8c-1.7-.8-3.4-1.1-4.9-1.1-.9 0-1.6 0-2.4.3a6.3 6.3 0 0 0-4.8 5.3v.2l-.1.1-.5.5v-.6l-.1-.4v-.7c-.2-2.4.5-4.4 1.9-5.9 1.1-1.2 2.6-2 4.4-2.2l1.5-.2c1.3 0 2.6.3 4 .8 3.4 1.2 6.3 3.4 8.5 6.5 1.3 1.9 2.1 3.8 2.4 5.8.2 1 .2 1.9 0 2.8l-.2 1.4L43 39Z" opacity=".5"/><path fill="#000" d="M28.7 23.6c1.3 0 2.5.2 3.9.7a17 17 0 0 1 8.3 6.4c1.3 1.8 2 3.7 2.4 5.7a9 9 0 0 1 0 2.6v.2c0-.4-.2-.7-.3-1.1-.5-2-1.5-4-2.9-5.6-1.7-2.1-4-3.8-6.4-5-1.7-.7-3.3-1.1-5-1.1-.8 0-1.7.1-2.5.3a6.6 6.6 0 0 0-5 5.6v.1l-.2-1c-.1-2.3.5-4.2 1.9-5.7 1-1.2 2.5-1.9 4.2-2h1.6Zm0-.6-1.5.1c-1.9.3-3.4 1.1-4.6 2.4a8.1 8.1 0 0 0-2.1 6v.8l.1.4.2 1.4.9-1.1.1-.1v-.2l.1-.2c.6-2.7 2-4.4 4.6-5.1a9 9 0 0 1 2.4-.4c1.5 0 3 .4 4.7 1.2 2.4 1 4.4 2.6 6.2 4.7a13 13 0 0 1 2.8 5.4l.2.7v.4l.6 2.5.6-2.5v-.2c.2-1 .2-1.9 0-2.9-.3-2.1-1.2-4-2.5-6a17.8 17.8 0 0 0-8.6-6.6c-1.5-.4-3-.7-4.2-.7Z" opacity=".5"/></g><g opacity=".5"><path fill="#fff" d="M25.2 39.3h-.3l-.8-.1a12 12 0 0 1-6.2-3.4A13.3 13.3 0 0 1 14.1 25c.5-4.1 2.6-7 6-8.3a10 10 0 0 1 6-.2l.9.3 1.5.6h-2.1a8.5 8.5 0 0 0-8.3 6c-.8 2.4-.8 5 .2 7.7a12.3 12.3 0 0 0 6.8 7.3l.4.2v.5l-.3.1Z" opacity=".5"/><path fill="#000" d="M23.3 16.6a9.9 9.9 0 0 1 3.5.7h-.4a8.8 8.8 0 0 0-8.6 6.2c-.9 2.4-1 5 .1 8 1.2 3.1 3.3 5.5 6.4 7.1l.9.4h-1c-2.3-.4-4.4-1.6-6.1-3.3a12.9 12.9 0 0 1-3.8-10.4c.5-4 2.4-6.7 5.9-8 1-.5 2-.7 3.1-.7Zm0-.6a9.8 9.8 0 0 0-9.6 9 14 14 0 0 0 4 11c1.9 1.9 4 3 6.4 3.5l.7.1h.3l.7.1v-1l-.3-.2-.3-.1-.6-.3a12 12 0 0 1-6-6.9c-1-2.6-1-5.2-.2-7.6a8.6 8.6 0 0 1 4.6-5 8 8 0 0 1 3.4-.8h.4l3.5.2-3.3-1.3-.8-.3c-1-.3-2-.4-2.9-.4Z" opacity=".5"/></g></g><defs><linearGradient id="a" x1="4.6" x2="58.4" y1="55.9" y2="2.3" gradientUnits="userSpaceOnUse"><stop stop-color="#BF9B2F"/><stop offset="0" stop-color="#C7A63B"/><stop offset=".1" stop-color="#DDC65F"/><stop offset=".2" stop-color="#F9F091"/><stop offset=".4" stop-color="#FFDD73"/><stop offset=".5" stop-color="#FFDC38"/><stop offset=".7" stop-color="#BF9B2F"/><stop offset=".8" stop-color="#966528"/><stop offset="1" stop-color="#854E24"/></linearGradient><linearGradient id="b" x1="0" x2="52.1" y1="33.7" y2="33.7" gradientUnits="userSpaceOnUse"><stop stop-color="#854E24"/><stop offset=".2" stop-color="#966528"/><stop offset=".3" stop-color="#BF9B2F"/><stop offset=".5" stop-color="#FFDC38"/><stop offset=".6" stop-color="#FFDD73"/><stop offset="1" stop-color="#BF9B2F"/></linearGradient><linearGradient id="c" x1="4" x2="47.6" y1="56.5" y2="13" gradientUnits="userSpaceOnUse"><stop stop-color="#854E24"/><stop offset=".2" stop-color="#966528"/><stop offset=".3" stop-color="#BF9B2F"/><stop offset=".5" stop-color="#FFDC38"/><stop offset=".6" stop-color="#FFDD73"/><stop offset="1" stop-color="#BF9B2F"/></linearGradient><linearGradient id="d" x1="2.6" x2="64.2" y1="32.6" y2="32.6" gradientUnits="userSpaceOnUse"><stop stop-color="#BF9B2F"/><stop offset="0" stop-color="#C7A63B"/><stop offset=".1" stop-color="#DDC65F"/><stop offset=".2" stop-color="#F9F091"/><stop offset=".4" stop-color="#FFDD73"/><stop offset=".5" stop-color="#FFDC38"/><stop offset=".7" stop-color="#BF9B2F"/><stop offset=".8" stop-color="#966528"/><stop offset="1" stop-color="#854E24"/></linearGradient><linearGradient id="e" x1="35.5" x2="35.5" y1="57" y2="1.2" gradientUnits="userSpaceOnUse"><stop/><stop offset="1" stop-color="#fff"/></linearGradient><linearGradient id="g" x1="35.5" x2="35.5" y1="57" y2="1.2" gradientUnits="userSpaceOnUse"><stop/><stop offset="1"/></linearGradient></defs></svg>